<svg id="Layer_1" data-name="Layer 1" xmlns="http://www.w3.org/2000/svg" viewBox="0 0 979.7 830">
  <defs>
    <style>
      .cls-1 {
        fill: #ec1f25;
      }

      .cls-2 {
        fill: #fdf004;
      }

      .cls-3 {
        fill: #3cb44c;
      }

      .cls-4 {
        fill: #70c87b;
      }

      .cls-5 {
        fill: #392f8b;
      }

      .cls-6 {
        fill: #5e2b75;
      }

      .cls-7 {
        fill: #0cb0e3;
      }

      .cls-8 {
        fill: #e30b88;
      }

      .cls-9 {
        fill: #cc217f;
      }

      .cls-10 {
        fill: #8f5f69;
      }

      .cls-11 {
        fill: #bc3279;
      }
    </style>
  </defs>
  <title>Untitled-1</title>
  <g>
    <path class="cls-1" d="M463.36,34.05l-210,570.27c14.5-2.49,27.8-4.67,41.07-7.06,66.6-12,133.22-23.89,199.76-36.29,11.13-2.07,18.57-.56,26.62,8.85,32.59,38.11,66.36,75.21,99.69,112.69,1.49,1.67,2.93,3.4,6.65,7.74L21.94,787.49,461.42,33.12ZM130.56,732.39,116.87,734l-3.88.4-13.73,1.64-3.73-.94L219.64,521.23l-3.31-2L60.63,756.81l2.23,2.52,288.43-48.67,24.92-4.38c-2.35-2.14-3-3.26-3.6-3.22-12.21.88-24.4,1.83-36.58,3-.82.08-1.47,1.93-2.2,3l-29.2,3.35-4.06.51-46.75,5.4-4,.5-29.17,3.35-4.06.53L203,724.17l-4,.49L169.79,728l-4,.5-31.12,3.34Z"/>
    <path class="cls-2" d="M956,788.56l-394.2-473c-1.75,3.59-3.46,6.83-4.94,10.17-17.43,39.21-34.55,78.56-52.32,117.62-14.09,30.95-28.86,61.59-43.67,92.2-1.44,3-5.1,6.25-8.18,6.79-50.64,8.75-101.34,17.09-152,25.49-.91.15-1.88-.15-4-.34l199-545c4.07,5,7.6,8.49,10.06,12.59q107.08,177.57,214,355.29c40.89,68,81.42,136.26,122.5,204.16,20.32,33.58,41.79,66.48,62.24,100,17.11,28,33.55,56.45,50.16,84.77,1.49,2.53,2.09,5.59,3.11,8.4ZM496.53,111.64,659.38,342c.57-7.8-155.47-264.06-163.91-269.9Q459.8,201.83,424.24,331.15l3.05.92C450.15,259.3,473,186.53,496.53,111.64Z"/>
    <path class="cls-3" d="M103.44,795.91l5.65-.78,6.09-1,7.56-1.11,4.17-.67,7.58-1.18,6.09-1,9.52-1.07,4.16-.7,7.58-1.15,6.09-1,7.56-1.05,4.18-.72,7.57-1.13,6.09-1.08,5.65-.77,6.09-1,7.56-1.09,4.17-.68,7.58-1.17,6.09-1,7.56-1.05,4.17-.71,7.58-1.15,6.09-1,7.56-1,4.17-.72,7.57-1.13,6.09-1.11,5.66-.75,6.08-1,7.57-1.09,4.17-.68,7.58-1.17,6.08-1,7.57-1,4.17-.71,7.57-1.15,6.09-1.06,5.66-.8,6.08-1,7.57-1.13,6.08-1.1,5.66-.75,6.09-1,7.57-1.08,4.16-.69,7.58-1.17,6.09-1L413.9,748l4.18-.7,7.57-1.15,6.09-1.08,5.65-.79,6.09-1,7.57-1.11,6.08-1.11,5.66-.75,6.09-1,7.56-1.08,4.17-.69,7.58-1.17,6.09-1,9.51-1,4.18-.71,7.57-1.15,6.09-1.08,5.65-.79,6.09-1,7.57-1.1,6.08-1.13,5.66-.73,6.09-1,7.56-1.08,4.17-.69,7.58-1.16,6.09-1,7.56-1.05,4.17-.72,7.57-1.14,6.09-1.08,5.66-.78,6.08-1,7.57-1.1,4.17-.67,7.57-1.19,6.09-1,7.57-1.06,4.17-.7,7.59-1.16c4.54,1.6,8.9,2.79,9.73-4.2-2.08-2.82-3.9-5.88-6.26-8.43q-78.94-85.26-158.14-170.27c-5.54-5.93-6.3-10.46-3.13-17.86,19-44.49,37.51-89.22,56.21-133.86,1.45-3.47,3.14-6.84,5.45-11.84,14.12,16.91,27.44,32.76,40.63,48.72,5.36,6.48,10.22,13.37,15.65,19.79Q735.28,560,844.48,688.9q48.74,57.54,97.37,115.16c-.11.82-.23,1.64-.34,2.46-46.08.09-92.17.26-138.25.27-45.11,0-90.23-.16-135.34-.24-4-.62-8.1-1.77-12.15-1.77q-289.9-.18-579.82-.29c-3.81,0-7.62-1.58-11.43-2.43L72,800.94,78,799.87l7.56-1,4.18-.72L97.35,797Zm490.3-15,35.07.13,82.13,1.78,9.72.19,82.12,1.78,7.77.14h84.74c-2.11-2.74-4-5.3-6-7.74q-35.88-43.36-71.79-86.7-50.06-60.37-100.17-120.72c-6.71-9.19-12.86-18.92-24-24q9.74,12.4,19.48,24.79,42,56.91,84,113.83Q804.7,695,812.39,705.7C824.75,722.8,837,740,849.51,757c2.48,3.38,5.79,6.16,9.81,10.35l-9.64,1.83-13.66.43-46.93,1.59-9.75.31-48.87,1.64-11.7.35-46.93,1.6-11.7.35-43.24,1.47-23.16.44H549.47c0,1.19,0,2.38,0,3.57Z"/>
    <path class="cls-4" d="M64.52,802.06c3.81.85,7.62,2.43,11.43,2.43q289.91.24,579.82.29c4.05,0,8.1,1.15,12.15,1.77-3.52.34-7,1-10.56,1q-302.37,0-604.75-.16a22.48,22.48,0,0,1-11.48-2.62Z"/>
    <path class="cls-4" d="M675.76,704.87c-.83,7-5.19,5.8-9.73,4.2Z"/>
    <path class="cls-4" d="M205.07,780.45l-6.09,1Z"/>
    <path class="cls-4" d="M193.33,782.22l-6.09,1.08Z"/>
    <path class="cls-4" d="M646.7,712l-6.09,1Z"/>
    <path class="cls-4" d="M167.93,786.2l-6.09,1Z"/>
    <path class="cls-4" d="M621.3,716l-6.08,1Z"/>
    <path class="cls-4" d="M293,766.76l-6.08,1Z"/>
    <path class="cls-4" d="M609.56,717.73l-6.09,1.08Z"/>
    <path class="cls-4" d="M140.58,790.17l-6.09,1Z"/>
    <path class="cls-4" d="M115.18,794.15l-6.09,1Z"/>
    <path class="cls-4" d="M584.17,721.72l-6.09,1Z"/>
    <path class="cls-4" d="M103.44,795.91,97.35,797Z"/>
    <path class="cls-4" d="M78,799.87,72,800.94Z"/>
    <path class="cls-4" d="M558.77,725.69l-6.09,1Z"/>
    <path class="cls-4" d="M443.48,743.35l-6.09,1Z"/>
    <path class="cls-4" d="M547,727.43l-6.08,1.13Z"/>
    <path class="cls-4" d="M533.37,729.66l-6.09,1Z"/>
    <path class="cls-4" d="M521.63,731.42l-6.09,1.08Z"/>
    <path class="cls-4" d="M406.34,749.09l-6.09,1Z"/>
    <path class="cls-4" d="M494.28,735.4l-6.09,1Z"/>
    <path class="cls-4" d="M457.13,741.13l-6.08,1.11Z"/>
    <path class="cls-4" d="M380.94,753.07l-6.09,1Z"/>
    <path class="cls-4" d="M369.19,754.82l-6.08,1.1Z"/>
    <path class="cls-4" d="M355.54,757.05l-6.08,1Z"/>
    <path class="cls-4" d="M343.8,758.81l-6.09,1.06Z"/>
    <path class="cls-4" d="M468.88,739.38l-6.09,1Z"/>
    <path class="cls-4" d="M318.4,762.78l-6.08,1Z"/>
    <path class="cls-4" d="M281.26,768.51l-6.09,1.11Z"/>
    <path class="cls-4" d="M255.87,772.51l-6.09,1Z"/>
    <path class="cls-4" d="M230.47,776.47l-6.09,1Z"/>
    <path class="cls-4" d="M431.74,745.11l-6.09,1.08Z"/>
    <path class="cls-4" d="M658.44,710.23l-4.17.7Z"/>
    <path class="cls-4" d="M633,714.2l-4.17.67Z"/>
    <path class="cls-4" d="M595.9,720l-4.17.72Z"/>
    <path class="cls-4" d="M570.5,723.92l-4.17.69Z"/>
    <path class="cls-4" d="M392.67,751.3l-4.16.69Z"/>
    <path class="cls-4" d="M267.6,770.75l-4.17.72Z"/>
    <path class="cls-4" d="M330.14,761l-4.17.71Z"/>
    <path class="cls-4" d="M179.67,784.43l-4.18.72Z"/>
    <path class="cls-4" d="M508,733.65l-4.18.71Z"/>
    <path class="cls-4" d="M480.61,737.61l-4.17.69Z"/>
    <path class="cls-4" d="M154.26,788.4l-4.16.7Z"/>
    <path class="cls-4" d="M242.2,774.71l-4.17.71Z"/>
    <path class="cls-4" d="M126.91,792.37l-4.17.67Z"/>
    <path class="cls-4" d="M304.74,765l-4.17.68Z"/>
    <path class="cls-4" d="M89.78,798.12l-4.18.72Z"/>
    <path class="cls-4" d="M418.08,747.34l-4.18.7Z"/>
    <path class="cls-4" d="M216.8,778.68l-4.17.68Z"/>
    <path class="cls-4" d="M941.51,806.52c.11-.82.23-1.64.34-2.46.39.63.77,1.26,1.15,1.89Z"/>
    <path class="cls-5" d="M134.62,731.86l31.12-3.34,4-.5L199,724.66l4-.49,13.54-1.53,4.06-.53,29.17-3.36,4-.49,46.75-5.4,4.06-.51,29.2-3.35,17.46,1.66L62.86,759.33l-2.23-2.52,155.7-237.62,3.31,2L95.53,735.11l3.73.95L113,734.42l3.88-.4,13.69-1.63Z"/>
    <path class="cls-6" d="M351.29,710.66,333.83,709c.73-1,1.38-2.87,2.2-3,12.18-1.16,24.37-2.11,36.58-3,.58,0,1.25,1.08,3.6,3.22Z"/>
    <path class="cls-6" d="M304.63,712.35l-4.06.51Z"/>
    <path class="cls-6" d="M253.82,718.26l-4,.49Z"/>
    <path class="cls-6" d="M220.6,722.11l-4.06.53Z"/>
    <path class="cls-6" d="M203,724.17l-4,.49Z"/>
    <path class="cls-6" d="M169.79,728l-4,.5Z"/>
    <path class="cls-6" d="M116.87,734l-3.88.4Z"/>
    <path class="cls-6" d="M134.62,731.86l-4.06.53Z"/>
    <path class="cls-6" d="M99.26,736.06l-3.73-.95Z"/>
    <path class="cls-7" d="M496.53,111.64C473,186.53,450.15,259.3,427.29,332.07l-3.05-.92q35.58-129.43,71.23-259.06C503.91,77.93,660,334.19,659.38,342Z"/>
    <path class="cls-8" d="M717.34,569.76q50.08,60.36,100.17,120.72,35.93,43.32,71.79,86.7c2,2.44,3.88,5,6,7.74H810.55l-7.77-.14L720.66,783l-9.72-.19L628.81,781l-11.91-4.14,43.24-1.47,11.7-.35,46.93-1.6,11.7-.35,48.87-1.64,9.75-.31L836,769.58l13.66-.43,9.64-1.83c-4-4.19-7.33-7-9.81-10.35C837,740,824.75,722.8,812.39,705.7q-7.73-10.68-15.51-21.29-42-56.92-84-113.83Z"/>
    <path class="cls-9" d="M717.34,569.76l-4.5.82q-9.75-12.39-19.49-24.79C704.48,550.84,710.63,560.57,717.34,569.76Z"/>
    <path class="cls-10" d="M593.74,780.9H549.49c0-1.19,0-2.38,0-3.57h44.27Z"/>
    <path class="cls-11" d="M593.74,780.9v-3.57l23.16-.44L628.81,781Z"/>
    <path class="cls-11" d="M849.68,769.15l-13.66.43Z"/>
    <path class="cls-11" d="M671.84,775.07l-11.7.35Z"/>
    <path class="cls-11" d="M730.47,773.12l-11.7.35Z"/>
    <path class="cls-11" d="M710.94,782.81l9.72.19Z"/>
    <path class="cls-11" d="M789.09,771.17l-9.75.31Z"/>
    <path class="cls-11" d="M802.78,784.78l7.77.14Z"/>
  </g>
</svg>
